<?xml version="1.0" standalone="no"?>
<!DOCTYPE svg PUBLIC "-//W3C//DTD SVG 20010904//EN"
 "http://www.w3.org/TR/2001/REC-SVG-20010904/DTD/svg10.dtd">
<svg version="1.0" xmlns="http://www.w3.org/2000/svg"
 width="152.000000pt" height="152.000000pt" viewBox="0 0 152.000000 152.000000"
 preserveAspectRatio="xMidYMid meet">
<metadata>
Created by potrace 1.11, written by Peter Selinger 2001-2013
</metadata>
<g transform="translate(0.000000,152.000000) scale(0.100000,-0.100000)"
fill="#000000" stroke="none">
<path d="M573 1480 c-86 -23 -175 -65 -258 -124 -74 -53 -123 -106 -179 -194
-84 -133 -116 -242 -116 -403 0 -170 43 -301 144 -444 101 -140 276 -251 453
-285 92 -18 281 -8 367 20 l69 22 -182 182 -183 183 68 1 c189 2 325 137 325
322 0 184 -137 321 -321 321 -108 0 -199 -45 -261 -129 -42 -57 -60 -117 -61
-195 l-1 -69 -99 99 c-112 111 -110 102 -53 218 70 146 230 261 398 287 286
44 565 -164 609 -454 24 -160 -28 -324 -142 -442 l-59 -62 73 -73 73 -73 37
33 c21 18 57 60 81 94 102 143 145 274 145 445 0 171 -43 302 -144 445 -96
134 -258 240 -428 280 -90 21 -265 19 -355 -5z m-68 -981 l280 -281 -65 7
c-223 25 -408 170 -469 370 -17 55 -38 185 -29 185 2 0 129 -126 283 -281z"/>
</g>
</svg>
