<?xml version="1.0" encoding="utf-8"?>
<!-- Generator: Adobe Illustrator 21.0.0, SVG Export Plug-In . SVG Version: 6.00 Build 0)  -->
<svg version="1.1" id="Layer_1" xmlns="http://www.w3.org/2000/svg" xmlns:xlink="http://www.w3.org/1999/xlink" x="0px" y="0px"
	 viewBox="0 0 841.9 255.1" style="enable-background:new 0 0 841.9 255.1;" xml:space="preserve">
<style type="text/css">
	.st0{fill:#992E8E;}
	.st1{fill:#28265F;}
</style>
<g>
	<path class="st0" d="M193,139.1c0-6.1-4.8-11-10.9-11.6v0c-1.1,0-2,0-2.9,0.1c-3,0.4-5.7,1.9-7.5,4.1l-38-24.3
		c0.6-1.4,0.9-2.9,0.9-4.5c0-1.4-0.3-2.8-0.8-4.1l37-18.1c1.9,2.8,5,4.7,8.6,5.2v0c1.4,0.2,2.6,0,2.6,0c6.1-0.5,11-5.5,11-11.6
		c0-6.5-5.4-11.7-12.1-11.7c-3.5,0-6.6,1.5-8.8,3.8l-38-22.1c0.3-1,0.5-2.1,0.5-3.2c0-6.5-5.4-11.7-12.1-11.7
		c-6.7,0-12.1,5.2-12.1,11.7c0,1.2,0.2,2.4,0.6,3.5L73.5,67.8c-2.2-2.7-5.6-4.4-9.4-4.4c-6.7,0-12.1,5.2-12.1,11.7
		c0,6,4.7,10.9,10.7,11.6v41.6c-6,0.7-10.7,5.6-10.7,11.6c0,6,4.7,10.9,10.7,11.6l2.6,0l1.6-0.3c3.4-0.8,6.3-3,7.9-6l36,13.1
		c-0.2,0.9-0.4,1.9-0.4,2.9c0,1.9,0.5,3.7,1.4,5.3l-38.4,24.4c-1.9-2.2-4.6-3.7-7.6-4.1c-1.3-0.2-2.4-0.1-3.1-0.1
		c-6,0.7-10.7,5.6-10.7,11.6c0,6.5,5.4,11.7,12.1,11.7c4.9,0,9.1-2.8,11-6.9l35.4,11.3c0,0.2-0.1,0.3-0.1,0.4
		c0,6.5,5.4,11.7,12.1,11.7c6.7,0,12.1-5.2,12.1-11.7l35.3-11c1.9,4.1,6.1,6.9,11,6.9c6.7,0,12.1-5.2,12.1-11.7
		c0-6-4.7-11-10.8-11.6l-0.1-36.9C188.2,150.1,193,145.1,193,139.1z M65.4,128.3V86.7c4-0.4,7.3-2.7,9.2-5.9l36.8,17.4
		c-0.6,1.4-1,3-1,4.6c0,1.9,0.5,3.7,1.4,5.3l-38.4,24.4C71.4,130.2,68.6,128.7,65.4,128.3z M120.5,203.4c-4.7,0.8-8.4,4.1-9.6,8.5
		l-35-11.2c0.2-0.8,0.3-1.6,0.3-2.4c0-1.9-0.5-3.7-1.3-5.3l38.4-24.4c1.8,2.2,4.4,3.7,7.4,4.1L120.5,203.4z M120.7,149.7
		c-3.9,0.6-7.2,3-8.9,6.3l-36-13.1c0.2-0.9,0.4-1.9,0.4-2.9c0-1.9-0.5-3.7-1.3-5.3l38.4-24.4c1.9,2.2,4.5,3.7,7.6,4.1L120.7,149.7z
		 M120.9,91.3c-3.4,0.4-6.3,2.2-8.2,4.7L75.6,78.5c0.3-1.1,0.6-2.2,0.6-3.4c0-1.9-0.5-3.6-1.3-5.2l37.2-23.1c1.9,3.1,5.1,5.3,9,5.7
		L120.9,91.3z M123.7,52.7c4.1-0.4,7.5-2.7,9.3-6l37.4,21.8c-1.1,1.7-1.7,3.7-1.7,5.9c0,1.4,0.3,2.8,0.8,4.1l-37,18.1
		c-2-2.9-5.2-4.9-9-5.2L123.7,52.7z M123.5,114.5c3.7-0.3,6.9-2.1,8.9-4.9l37.8,24.2c-0.9,1.6-1.4,3.4-1.4,5.3c0,1.1,0.2,2.1,0.5,3
		l-36.1,13.7c-1.9-3.5-5.5-5.9-9.8-6.2L123.5,114.5z M168.8,199.2c0,0.8,0.1,1.6,0.2,2.3l-34.8,10.8c-1.2-5.1-5.7-8.8-11.2-9.1
		l0.1-30.4c3.3-0.2,6.3-1.7,8.3-4l38.7,24.9C169.3,195.4,168.8,197.2,168.8,199.2z M171.7,191.7L133,166.8c0.9-1.7,1.5-3.6,1.5-5.6
		c0-1.1-0.2-2.1-0.5-3l36.1-13.7c1.8,3.3,5.2,5.7,9.2,6.2l0.1,36.9C176.4,187.9,173.6,189.4,171.7,191.7z"/>
	<g>
		<path class="st1" d="M252.6,87.4c6.9,4,12.3,9.8,12.3,19c0,13.2-11.1,20.2-23.4,20.2c-5.3,0-11.2-1.3-15.5-3.9
			c-2.9-1.6-5.1-3.7-5.1-5.9c0-2.1,1.8-4.5,4.1-4.5c3.4,0,7,6.2,16.2,6.2c7.9,0,13.8-4.4,13.8-11.7c0-6.6-4.9-10.3-9.8-13
			c-7.3-4-22.4-8.9-22.4-22.8c0-10.8,9.3-18.3,22.3-18.3c9.7,0,18.4,4.3,18.4,8.2c0,1.9-1.7,4.5-4.1,4.5c-3.2,0-6.6-4.6-14.4-4.6
			c-7.2,0-12.2,4-12.2,9.7C232.7,79.5,244.7,82.8,252.6,87.4z"/>
		<path class="st1" d="M318.6,118.3c4,0,8.1-0.8,11.7-2.2c4.7-1.9,6.5-3.9,8.7-3.9c2.4,0,3.9,2.6,3.9,4.5c0,2-1.6,3.4-4.1,4.9
			c-5.7,3.4-13.1,5.1-20.3,5.1c-19.3,0-37.5-12.1-37.5-37.5c0-25.2,17.9-36.6,37.4-36.6c7.8,0,14.8,1.9,20.1,4.9
			c2.9,1.7,4.5,3.2,4.5,5.1c0,1.9-1.6,4.8-4.1,4.8c-1.8,0-3.4-1.6-8.7-3.9c-3.7-1.5-7.5-2.5-12.2-2.5c-13.3,0-26.6,7.7-26.6,27.8
			C291.2,109.4,305,118.3,318.6,118.3z"/>
		<path class="st1" d="M401.9,102h-27.3l-7.8,19.5c-1.1,2.8-2.1,4.6-5.9,4.6c-3.2,0-4.5-1.2-4.5-3c0-0.8,0.2-1.5,0.8-3l25.6-61.3
			c1.4-3.3,2.6-5.6,6.2-5.6c3.4,0,4.6,2.2,5.9,5.5l24.6,61.3c0.5,1.1,0.8,2.2,0.8,3c0,1.9-1.5,3.1-4.7,3.1c-3.5,0-4.8-1.4-6.1-4.6
			L401.9,102z M377.9,93.8h20.9l-10.3-26.2L377.9,93.8z"/>
		<path class="st1" d="M449.2,120.9c0,1.5,0,2.6-0.7,3.6c-0.9,1.3-2.6,1.7-4,1.7c-1.9,0-3.3-0.6-4.1-1.7c-0.7-1-0.7-2.1-0.7-3.6
			V57.5c0-2.6,1.6-4.1,4.6-4.1c3.3,0,4.8,1.8,7.3,4.8l41.6,50.7V58.8c0-1.5,0-2.6,0.7-3.6c0.9-1.3,2.6-1.6,4-1.6
			c1.9,0,3.3,0.5,4.1,1.6c0.7,1,0.7,2.1,0.7,3.6v63.5c0,2.5-1.5,4-4.3,4c-3,0-4.5-1.5-7.1-4.7l-42-51.3V120.9z"/>
		<path class="st1" d="M539.6,120.9c0,1.5,0,2.6-0.7,3.6c-0.9,1.3-2.6,1.7-4,1.7c-1.9,0-3.3-0.6-4.1-1.7c-0.7-1-0.7-2.1-0.7-3.6
			V57.5c0-2.6,1.6-4.1,4.6-4.1c3.3,0,4.8,1.8,7.3,4.8l41.6,50.7V58.8c0-1.5,0-2.6,0.7-3.6c0.9-1.3,2.6-1.6,4-1.6
			c1.9,0,3.3,0.5,4.1,1.6c0.7,1,0.7,2.1,0.7,3.6v63.5c0,2.5-1.5,4-4.3,4c-3,0-4.5-1.5-7.1-4.7l-42-51.3V120.9z"/>
		<path class="st1" d="M630.4,82.9h17.9c1.5,0,2.6,0.1,3.7,0.8c0.9,0.7,1.5,1.8,1.5,3.4c0,1.8-0.6,2.9-1.5,3.5
			c-1,0.7-2.2,0.8-3.7,0.8h-17.9V117h25.4c1.5,0,2.6,0.1,3.7,0.8c0.9,0.7,1.5,1.8,1.5,3.4c0,1.8-0.6,2.9-1.5,3.5
			c-1,0.7-2.2,0.8-3.7,0.8h-30.4c-3.7,0-4.8-1.4-4.8-4.6V58.9c0-3.3,1.4-4.6,4.8-4.6h27.1c1.5,0,2.6,0.1,3.7,0.8
			c0.9,0.7,1.5,1.8,1.5,3.4c0,1.8-0.6,2.9-1.5,3.5c-1,0.7-2.2,0.8-3.7,0.8h-22V82.9z"/>
		<path class="st1" d="M718.3,117c1.5,0,2.6,0.1,3.7,0.8c0.9,0.7,1.5,1.8,1.5,3.4c0,1.8-0.6,2.9-1.5,3.5c-1,0.7-2.2,0.8-3.7,0.8
			h-30.4c-3.7,0-4.8-1.5-4.8-4.6v-62c0-1.5,0-2.6,0.7-3.6c0.7-1,2.3-1.6,4.2-1.6c2.1,0,3.7,0.7,4.3,1.6c0.7,1,0.7,2.1,0.7,3.6V117
			H718.3z"/>
		<path class="st1" d="M777.8,117c1.5,0,2.6,0.1,3.7,0.8c0.9,0.7,1.5,1.8,1.5,3.4c0,1.8-0.6,2.9-1.5,3.5c-1,0.7-2.2,0.8-3.7,0.8
			h-30.4c-3.7,0-4.8-1.5-4.8-4.6v-62c0-1.5,0-2.6,0.7-3.6c0.7-1,2.3-1.6,4.2-1.6c2.1,0,3.7,0.7,4.3,1.6c0.7,1,0.7,2.1,0.7,3.6V117
			H777.8z"/>
	</g>
	<g>
		<path class="st1" d="M241.1,146.2c-0.5-0.6-1.1-1.2-1.8-1.5c-0.7-0.4-1.6-0.6-2.6-0.6c-0.5,0-1.1,0.1-1.6,0.2
			c-0.5,0.2-1,0.4-1.5,0.7c-0.4,0.3-0.8,0.7-1.1,1.2c-0.3,0.5-0.4,1.1-0.4,1.8c0,0.7,0.1,1.2,0.4,1.7c0.3,0.4,0.6,0.8,1,1.1
			c0.4,0.3,0.9,0.6,1.5,0.8c0.5,0.2,1.1,0.4,1.7,0.6c0.7,0.2,1.5,0.5,2.2,0.8s1.4,0.6,2,1.1s1.1,1,1.5,1.7c0.4,0.7,0.6,1.6,0.6,2.6
			c0,1.1-0.2,2-0.6,2.7c-0.4,0.8-0.9,1.4-1.6,1.9c-0.6,0.5-1.4,0.9-2.2,1.1c-0.8,0.2-1.7,0.4-2.5,0.4c-0.6,0-1.3-0.1-1.9-0.2
			s-1.2-0.3-1.8-0.6c-0.6-0.3-1.1-0.6-1.6-1c-0.5-0.4-0.9-0.9-1.3-1.4l1.9-1.4c0.5,0.8,1.1,1.4,1.9,1.9s1.8,0.8,2.9,0.8
			c0.5,0,1.1-0.1,1.7-0.3c0.6-0.2,1.1-0.4,1.5-0.8c0.4-0.3,0.8-0.8,1.1-1.3c0.3-0.5,0.4-1.1,0.4-1.8c0-0.7-0.1-1.4-0.4-1.8
			c-0.3-0.5-0.7-0.9-1.2-1.2s-1-0.6-1.7-0.8c-0.6-0.2-1.3-0.4-1.9-0.7c-0.7-0.2-1.4-0.5-2.1-0.8c-0.7-0.3-1.3-0.6-1.8-1.1
			c-0.5-0.5-1-1-1.3-1.7s-0.5-1.5-0.5-2.4c0-1,0.2-1.9,0.6-2.6c0.4-0.7,0.9-1.4,1.6-1.8c0.7-0.5,1.4-0.8,2.2-1.1
			c0.8-0.2,1.6-0.3,2.4-0.3c1.4,0,2.7,0.3,3.7,0.8s1.8,1.1,2.3,1.8L241.1,146.2z"/>
		<path class="st1" d="M257.6,155c0-1.2-0.3-2.1-1-2.7c-0.6-0.6-1.6-0.9-2.8-0.9c-0.8,0-1.6,0.1-2.3,0.4c-0.7,0.3-1.3,0.7-1.8,1.2
			l-1.1-1.3c0.6-0.6,1.3-1.1,2.3-1.4c0.9-0.4,2-0.6,3.2-0.6c0.8,0,1.5,0.1,2.1,0.3c0.7,0.2,1.2,0.5,1.7,0.9s0.9,1,1.2,1.6
			c0.3,0.6,0.4,1.4,0.4,2.2v6.2c0,0.5,0,1.1,0.1,1.7c0,0.6,0.1,1.1,0.2,1.5h-1.8c-0.1-0.3-0.1-0.7-0.1-1.1c0-0.4-0.1-0.8-0.1-1.2
			h-0.1c-0.6,0.9-1.4,1.6-2.2,2c-0.8,0.4-1.8,0.6-2.9,0.6c-0.5,0-1.1-0.1-1.7-0.2c-0.6-0.2-1.1-0.4-1.6-0.7
			c-0.5-0.3-0.9-0.8-1.2-1.3c-0.3-0.5-0.5-1.2-0.5-2c0-1.1,0.3-1.9,0.8-2.6s1.3-1.1,2.2-1.4c0.9-0.3,2-0.5,3.2-0.6
			c1.2-0.1,2.4-0.1,3.7-0.1V155z M257,157c-0.8,0-1.7,0-2.5,0.1c-0.9,0.1-1.6,0.2-2.3,0.4c-0.7,0.2-1.3,0.5-1.7,0.9
			c-0.4,0.4-0.7,0.9-0.7,1.6c0,0.5,0.1,0.9,0.3,1.3c0.2,0.3,0.4,0.6,0.8,0.8c0.3,0.2,0.7,0.4,1.1,0.4c0.4,0.1,0.8,0.1,1.2,0.1
			c0.7,0,1.4-0.1,1.9-0.4s1-0.6,1.4-1c0.4-0.4,0.7-0.9,0.9-1.5c0.2-0.6,0.3-1.1,0.3-1.8v-1H257z"/>
		<path class="st1" d="M271.9,151.7h-3.3v12.3h-2v-12.3h-2.9V150h2.9v-3.8c0-1.6,0.4-2.9,1.2-3.8c0.8-0.9,2-1.4,3.6-1.4
			c0.3,0,0.5,0,0.8,0c0.3,0,0.6,0.1,0.8,0.2l-0.4,1.8c-0.2-0.1-0.4-0.1-0.7-0.2c-0.2,0-0.5-0.1-0.8-0.1c-0.5,0-1,0.1-1.3,0.3
			c-0.3,0.2-0.6,0.4-0.8,0.8c-0.2,0.3-0.3,0.7-0.4,1.2c-0.1,0.4-0.1,0.9-0.1,1.4v3.6h3.3V151.7z"/>
		<path class="st1" d="M288.8,156.6c0,0.1,0,0.3,0,0.4c0,0.2,0,0.3,0,0.5h-11.6c0,0.7,0.2,1.4,0.4,2c0.3,0.6,0.6,1.2,1.1,1.6
			s1,0.8,1.6,1.1c0.6,0.3,1.3,0.4,2,0.4c1.1,0,2-0.2,2.7-0.7c0.8-0.5,1.4-1.1,1.8-1.7l1.5,1.2c-0.8,1.1-1.8,1.8-2.8,2.3
			c-1,0.5-2.1,0.7-3.3,0.7c-1,0-2-0.2-2.9-0.6c-0.9-0.4-1.7-0.9-2.3-1.5c-0.6-0.7-1.1-1.4-1.5-2.3c-0.4-0.9-0.6-1.9-0.6-2.9
			s0.2-2,0.5-2.9c0.4-0.9,0.9-1.7,1.5-2.3s1.4-1.2,2.2-1.5s1.8-0.6,2.8-0.6c1.1,0,2.1,0.2,2.9,0.6s1.5,0.9,2.1,1.5
			c0.6,0.6,1,1.4,1.3,2.2S288.8,155.7,288.8,156.6z M286.7,156c-0.1-1.3-0.5-2.4-1.3-3.3s-1.9-1.3-3.4-1.3c-0.7,0-1.3,0.1-1.9,0.4
			s-1.1,0.6-1.5,1c-0.4,0.4-0.8,0.9-1,1.5c-0.3,0.6-0.4,1.1-0.5,1.7H286.7z"/>
		<path class="st1" d="M300.7,151.7h-4v8.2c0,0.5,0,1,0.1,1.3c0.1,0.3,0.2,0.6,0.4,0.8c0.2,0.2,0.4,0.3,0.7,0.4
			c0.3,0.1,0.5,0.1,0.8,0.1c0.3,0,0.6,0,0.9-0.1c0.3-0.1,0.6-0.2,0.9-0.3l0.1,1.8c-0.4,0.1-0.7,0.2-1.1,0.3
			c-0.4,0.1-0.8,0.1-1.3,0.1c-0.4,0-0.8-0.1-1.2-0.2s-0.8-0.3-1.2-0.6c-0.4-0.3-0.7-0.7-0.9-1.1c-0.2-0.5-0.3-1.1-0.3-1.9v-8.8h-2.9
			V150h2.9v-4h2v4h4V151.7z"/>
		<path class="st1" d="M309.9,161.9L309.9,161.9l4.4-11.9h2.2l-7,17.7c-0.4,1.1-1,1.9-1.6,2.6c-0.7,0.7-1.6,1-2.8,1
			c-0.6,0-1.2-0.1-1.8-0.2l0.2-1.9c0.5,0.2,1,0.2,1.5,0.2c0.7,0,1.2-0.2,1.7-0.6c0.4-0.4,0.8-1,1-1.8l1.1-2.9l-6-14h2.3L309.9,161.9
			z"/>
		<path class="st1" d="M326.4,157.6h-6.7v-1.7h6.7V157.6z"/>
		<path class="st1" d="M341.8,146.2c-0.5-0.6-1.1-1.2-1.8-1.5c-0.7-0.4-1.6-0.6-2.6-0.6c-0.5,0-1.1,0.1-1.6,0.2
			c-0.5,0.2-1,0.4-1.5,0.7c-0.4,0.3-0.8,0.7-1.1,1.2c-0.3,0.5-0.4,1.1-0.4,1.8c0,0.7,0.1,1.2,0.4,1.7c0.3,0.4,0.6,0.8,1,1.1
			c0.4,0.3,0.9,0.6,1.5,0.8c0.5,0.2,1.1,0.4,1.7,0.6c0.7,0.2,1.5,0.5,2.2,0.8s1.4,0.6,2,1.1c0.6,0.5,1.1,1,1.5,1.7
			c0.4,0.7,0.6,1.6,0.6,2.6c0,1.1-0.2,2-0.6,2.7c-0.4,0.8-0.9,1.4-1.6,1.9s-1.4,0.9-2.2,1.1c-0.8,0.2-1.7,0.4-2.5,0.4
			c-0.6,0-1.3-0.1-1.9-0.2c-0.6-0.1-1.2-0.3-1.8-0.6c-0.6-0.3-1.1-0.6-1.6-1c-0.5-0.4-0.9-0.9-1.3-1.4l1.9-1.4
			c0.5,0.8,1.1,1.4,1.9,1.9s1.8,0.8,2.9,0.8c0.5,0,1.1-0.1,1.7-0.3c0.6-0.2,1.1-0.4,1.5-0.8s0.8-0.8,1.1-1.3s0.4-1.1,0.4-1.8
			c0-0.7-0.1-1.4-0.4-1.8s-0.7-0.9-1.2-1.2c-0.5-0.3-1-0.6-1.6-0.8c-0.6-0.2-1.3-0.4-2-0.7c-0.7-0.2-1.4-0.5-2.1-0.8
			c-0.7-0.3-1.3-0.6-1.8-1.1s-1-1-1.3-1.7s-0.5-1.5-0.5-2.4c0-1,0.2-1.9,0.6-2.6c0.4-0.7,0.9-1.4,1.6-1.8c0.7-0.5,1.4-0.8,2.2-1.1
			c0.8-0.2,1.6-0.3,2.4-0.3c1.4,0,2.7,0.3,3.7,0.8c1,0.5,1.8,1.1,2.3,1.8L341.8,146.2z"/>
		<path class="st1" d="M359.7,164.1c0-0.4-0.1-0.8-0.1-1.3c0-0.5,0-0.8,0-1.1h-0.1c-0.4,0.8-1,1.5-2,2c-0.9,0.5-1.8,0.8-2.8,0.8
			c-1.8,0-3.1-0.5-4-1.6c-0.9-1.1-1.3-2.5-1.3-4.2V150h2v7.8c0,0.7,0.1,1.4,0.2,2s0.3,1.1,0.6,1.5c0.3,0.4,0.7,0.8,1.2,1
			s1.1,0.4,1.8,0.4c0.5,0,1.1-0.1,1.6-0.3c0.5-0.2,1-0.6,1.4-1c0.4-0.5,0.7-1,1-1.7c0.2-0.7,0.4-1.5,0.4-2.4V150h2v11
			c0,0.4,0,0.9,0,1.5c0,0.6,0,1.1,0.1,1.6H359.7z"/>
		<path class="st1" d="M375.6,153.3c-0.3-0.6-0.8-1.1-1.4-1.4s-1.3-0.6-2.1-0.6c-0.4,0-0.7,0-1.1,0.1c-0.4,0.1-0.7,0.2-1,0.4
			s-0.5,0.4-0.7,0.7c-0.2,0.3-0.3,0.6-0.3,1c0,0.7,0.3,1.2,0.8,1.5s1.4,0.6,2.6,0.9c1.7,0.3,2.9,0.8,3.7,1.5
			c0.8,0.7,1.2,1.5,1.2,2.6c0,0.8-0.2,1.5-0.5,2c-0.3,0.6-0.7,1-1.2,1.3c-0.5,0.4-1.1,0.6-1.7,0.8s-1.3,0.2-1.9,0.2
			c-1.1,0-2.1-0.2-3.1-0.7s-1.8-1.1-2.5-2.1l1.6-1.2c0.4,0.6,0.9,1.1,1.6,1.6s1.5,0.6,2.3,0.6c0.4,0,0.9,0,1.3-0.1
			c0.4-0.1,0.8-0.2,1-0.4c0.3-0.2,0.5-0.5,0.7-0.8c0.2-0.3,0.3-0.7,0.3-1.2c0-0.7-0.4-1.3-1.1-1.7s-1.7-0.7-3.1-1
			c-0.4-0.1-0.9-0.2-1.3-0.4c-0.5-0.1-0.9-0.4-1.3-0.7c-0.4-0.3-0.7-0.7-1-1.1c-0.3-0.4-0.4-1-0.4-1.6c0-0.7,0.1-1.3,0.4-1.8
			c0.3-0.5,0.7-0.9,1.1-1.3s1-0.6,1.6-0.7c0.6-0.2,1.2-0.2,1.9-0.2c1,0,1.9,0.2,2.9,0.7c0.9,0.4,1.6,1.1,2.1,1.9L375.6,153.3z"/>
		<path class="st1" d="M389,151.7h-4v8.2c0,0.5,0,1,0.1,1.3c0.1,0.3,0.2,0.6,0.4,0.8c0.2,0.2,0.4,0.3,0.7,0.4
			c0.3,0.1,0.5,0.1,0.8,0.1c0.3,0,0.6,0,0.9-0.1c0.3-0.1,0.6-0.2,0.9-0.3l0.1,1.8c-0.4,0.1-0.7,0.2-1.1,0.3
			c-0.4,0.1-0.8,0.1-1.3,0.1c-0.4,0-0.8-0.1-1.2-0.2s-0.8-0.3-1.2-0.6c-0.4-0.3-0.7-0.7-0.9-1.1c-0.2-0.5-0.3-1.1-0.3-1.9v-8.8h-2.9
			V150h2.9v-4h2v4h4V151.7z"/>
		<path class="st1" d="M402.2,155c0-1.2-0.3-2.1-1-2.7c-0.6-0.6-1.6-0.9-2.8-0.9c-0.8,0-1.6,0.1-2.3,0.4c-0.7,0.3-1.3,0.7-1.8,1.2
			l-1.1-1.3c0.6-0.6,1.3-1.1,2.3-1.4c0.9-0.4,2-0.6,3.2-0.6c0.8,0,1.5,0.1,2.1,0.3c0.7,0.2,1.2,0.5,1.7,0.9s0.9,1,1.2,1.6
			c0.3,0.6,0.4,1.4,0.4,2.2v6.2c0,0.5,0,1.1,0.1,1.7c0,0.6,0.1,1.1,0.2,1.5h-1.8c-0.1-0.3-0.1-0.7-0.1-1.1c0-0.4-0.1-0.8-0.1-1.2
			h-0.1c-0.6,0.9-1.4,1.6-2.2,2c-0.8,0.4-1.8,0.6-2.9,0.6c-0.5,0-1.1-0.1-1.7-0.2c-0.6-0.2-1.1-0.4-1.6-0.7
			c-0.5-0.3-0.9-0.8-1.2-1.3c-0.3-0.5-0.5-1.2-0.5-2c0-1.1,0.3-1.9,0.8-2.6s1.3-1.1,2.2-1.4c0.9-0.3,2-0.5,3.2-0.6
			c1.2-0.1,2.4-0.1,3.7-0.1V155z M401.6,157c-0.8,0-1.7,0-2.5,0.1c-0.9,0.1-1.6,0.2-2.3,0.4c-0.7,0.2-1.3,0.5-1.7,0.9
			c-0.4,0.4-0.7,0.9-0.7,1.6c0,0.5,0.1,0.9,0.3,1.3c0.2,0.3,0.4,0.6,0.8,0.8c0.3,0.2,0.7,0.4,1.1,0.4c0.4,0.1,0.8,0.1,1.2,0.1
			c0.7,0,1.4-0.1,1.9-0.4s1-0.6,1.4-1c0.4-0.4,0.7-0.9,0.9-1.5c0.2-0.6,0.3-1.1,0.3-1.8v-1H401.6z"/>
		<path class="st1" d="M413.1,144.6c0,0.4-0.2,0.8-0.5,1c-0.3,0.3-0.6,0.4-1,0.4s-0.7-0.1-1-0.4c-0.3-0.3-0.5-0.6-0.5-1
			s0.2-0.8,0.5-1c0.3-0.3,0.6-0.4,1-0.4s0.7,0.1,1,0.4C412.9,143.8,413.1,144.2,413.1,144.6z M412.7,164.1h-2v-14h2V164.1z"/>
		<path class="st1" d="M421.1,150c0,0.4,0.1,0.8,0.1,1.3c0,0.5,0,0.8,0,1.1h0.1c0.4-0.8,1-1.5,2-2c0.9-0.5,1.8-0.8,2.8-0.8
			c1.8,0,3.1,0.5,4,1.6c0.9,1.1,1.3,2.5,1.3,4.2v8.6h-2v-7.8c0-0.7-0.1-1.4-0.2-2c-0.1-0.6-0.3-1.1-0.6-1.5c-0.3-0.4-0.7-0.8-1.2-1
			c-0.5-0.2-1.1-0.4-1.8-0.4c-0.5,0-1.1,0.1-1.6,0.3c-0.5,0.2-1,0.6-1.4,1c-0.4,0.5-0.7,1-1,1.7c-0.2,0.7-0.4,1.5-0.4,2.4v7.2h-2
			v-11c0-0.4,0-0.9,0-1.5c0-0.6,0-1.1-0.1-1.6H421.1z"/>
		<path class="st1" d="M446.8,155c0-1.2-0.3-2.1-1-2.7c-0.6-0.6-1.6-0.9-2.8-0.9c-0.8,0-1.6,0.1-2.3,0.4c-0.7,0.3-1.3,0.7-1.8,1.2
			l-1.1-1.3c0.6-0.6,1.3-1.1,2.3-1.4c0.9-0.4,2-0.6,3.2-0.6c0.8,0,1.5,0.1,2.1,0.3c0.7,0.2,1.2,0.5,1.7,0.9s0.9,1,1.2,1.6
			c0.3,0.6,0.4,1.4,0.4,2.2v6.2c0,0.5,0,1.1,0.1,1.7c0,0.6,0.1,1.1,0.2,1.5h-1.8c-0.1-0.3-0.1-0.7-0.1-1.1c0-0.4-0.1-0.8-0.1-1.2
			h-0.1c-0.6,0.9-1.4,1.6-2.2,2c-0.8,0.4-1.8,0.6-2.9,0.6c-0.5,0-1.1-0.1-1.7-0.2c-0.6-0.2-1.1-0.4-1.6-0.7
			c-0.5-0.3-0.9-0.8-1.2-1.3c-0.3-0.5-0.5-1.2-0.5-2c0-1.1,0.3-1.9,0.8-2.6s1.3-1.1,2.2-1.4c0.9-0.3,2-0.5,3.2-0.6
			c1.2-0.1,2.4-0.1,3.7-0.1V155z M446.2,157c-0.8,0-1.7,0-2.5,0.1c-0.9,0.1-1.6,0.2-2.3,0.4c-0.7,0.2-1.3,0.5-1.7,0.9
			c-0.4,0.4-0.7,0.9-0.7,1.6c0,0.5,0.1,0.9,0.3,1.3c0.2,0.3,0.4,0.6,0.8,0.8c0.3,0.2,0.7,0.4,1.1,0.4c0.4,0.1,0.8,0.1,1.2,0.1
			c0.7,0,1.4-0.1,1.9-0.4s1-0.6,1.4-1c0.4-0.4,0.7-0.9,0.9-1.5c0.2-0.6,0.3-1.1,0.3-1.8v-1H446.2z"/>
		<path class="st1" d="M457.2,161.7v2.4h-2v-22.7h2v11.1h0.1c0.6-0.9,1.4-1.6,2.3-2.1s2-0.7,3-0.7c1.1,0,2.1,0.2,3,0.6
			c0.9,0.4,1.6,0.9,2.3,1.6c0.6,0.7,1.1,1.4,1.5,2.3c0.3,0.9,0.5,1.9,0.5,2.9s-0.2,2-0.5,2.9c-0.4,0.9-0.8,1.7-1.5,2.3
			c-0.6,0.7-1.4,1.2-2.3,1.6c-0.9,0.4-1.9,0.6-3,0.6c-1,0-2-0.2-3-0.7S457.9,162.6,457.2,161.7L457.2,161.7z M467.7,157
			c0-0.8-0.1-1.5-0.4-2.2c-0.2-0.7-0.6-1.3-1-1.8c-0.5-0.5-1-0.9-1.7-1.2c-0.7-0.3-1.4-0.4-2.2-0.4c-0.8,0-1.5,0.1-2.2,0.4
			s-1.2,0.7-1.7,1.2c-0.5,0.5-0.9,1.1-1.1,1.8c-0.3,0.7-0.4,1.4-0.4,2.2s0.1,1.5,0.4,2.2c0.3,0.7,0.6,1.3,1.1,1.8
			c0.5,0.5,1,0.9,1.7,1.2s1.4,0.4,2.2,0.4c0.8,0,1.6-0.1,2.2-0.4s1.2-0.7,1.7-1.2s0.8-1.1,1-1.8C467.6,158.5,467.7,157.8,467.7,157z
			"/>
		<path class="st1" d="M477.9,144.6c0,0.4-0.2,0.8-0.5,1c-0.3,0.3-0.6,0.4-1,0.4s-0.7-0.1-1-0.4c-0.3-0.3-0.5-0.6-0.5-1
			s0.2-0.8,0.5-1c0.3-0.3,0.6-0.4,1-0.4s0.7,0.1,1,0.4C477.8,143.8,477.9,144.2,477.9,144.6z M477.5,164.1h-2v-14h2V164.1z"/>
		<path class="st1" d="M486.2,164.1h-2v-22.7h2V164.1z"/>
		<path class="st1" d="M495.4,144.6c0,0.4-0.2,0.8-0.5,1c-0.3,0.3-0.6,0.4-1,0.4s-0.7-0.1-1-0.4c-0.3-0.3-0.5-0.6-0.5-1
			s0.2-0.8,0.5-1c0.3-0.3,0.6-0.4,1-0.4s0.7,0.1,1,0.4C495.2,143.8,495.4,144.2,495.4,144.6z M495,164.1h-2v-14h2V164.1z"/>
		<path class="st1" d="M507.9,151.7h-4v8.2c0,0.5,0,1,0.1,1.3c0.1,0.3,0.2,0.6,0.4,0.8c0.2,0.2,0.4,0.3,0.7,0.4
			c0.3,0.1,0.5,0.1,0.8,0.1c0.3,0,0.6,0,0.9-0.1c0.3-0.1,0.6-0.2,0.9-0.3l0.1,1.8c-0.4,0.1-0.7,0.2-1.1,0.3
			c-0.4,0.1-0.8,0.1-1.3,0.1c-0.4,0-0.8-0.1-1.2-0.2s-0.8-0.3-1.2-0.6c-0.4-0.3-0.7-0.7-0.9-1.1c-0.2-0.5-0.3-1.1-0.3-1.9v-8.8H499
			V150h2.9v-4h2v4h4V151.7z"/>
		<path class="st1" d="M517.1,161.9L517.1,161.9l4.4-11.9h2.2l-7,17.7c-0.4,1.1-1,1.9-1.6,2.6c-0.7,0.7-1.6,1-2.8,1
			c-0.6,0-1.2-0.1-1.8-0.2l0.2-1.9c0.5,0.2,1,0.2,1.5,0.2c0.7,0,1.2-0.2,1.7-0.6c0.4-0.4,0.8-1,1-1.8l1.1-2.9l-6-14h2.3L517.1,161.9
			z"/>
		<path class="st1" d="M533.6,157.6h-6.7v-1.7h6.7V157.6z"/>
		<path class="st1" d="M560.8,164.1h-12.2c-1.5,0-3-0.3-4.3-0.8c-1.3-0.5-2.4-1.3-3.4-2.3c-1-1-1.7-2.1-2.2-3.4s-0.8-2.8-0.8-4.4
			s0.3-3,0.8-4.4s1.3-2.5,2.2-3.5c1-1,2.1-1.7,3.4-2.3c1.3-0.5,2.7-0.8,4.3-0.8c1.5,0,2.9,0.3,4.2,0.8c1.3,0.5,2.4,1.3,3.4,2.3
			c1,1,1.7,2.1,2.2,3.4s0.8,2.8,0.8,4.4c0,1.9-0.4,3.6-1.2,5.1s-2.1,2.8-3.7,3.8v0.1h6.4V164.1z M540.2,153.2c0,1.2,0.2,2.3,0.6,3.4
			c0.4,1.1,0.9,2,1.7,2.9s1.6,1.5,2.7,2s2.2,0.7,3.6,0.7c1.3,0,2.5-0.2,3.5-0.7c1-0.5,1.9-1.1,2.7-2c0.7-0.8,1.3-1.8,1.7-2.9
			c0.4-1.1,0.6-2.2,0.6-3.4s-0.2-2.3-0.6-3.4c-0.4-1.1-1-2-1.7-2.9c-0.7-0.8-1.6-1.5-2.7-2c-1.1-0.5-2.2-0.7-3.5-0.7
			c-1.3,0-2.5,0.2-3.6,0.7s-1.9,1.1-2.7,2s-1.3,1.8-1.7,2.9S540.2,152,540.2,153.2z"/>
		<path class="st1" d="M575.6,164.1c0-0.4-0.1-0.8-0.1-1.3c0-0.5,0-0.8,0-1.1h-0.1c-0.4,0.8-1,1.5-2,2c-0.9,0.5-1.8,0.8-2.8,0.8
			c-1.8,0-3.1-0.5-4-1.6c-0.9-1.1-1.3-2.5-1.3-4.2V150h2v7.8c0,0.7,0.1,1.4,0.2,2s0.3,1.1,0.6,1.5c0.3,0.4,0.7,0.8,1.2,1
			s1.1,0.4,1.8,0.4c0.5,0,1.1-0.1,1.6-0.3c0.5-0.2,1-0.6,1.4-1c0.4-0.5,0.7-1,1-1.7c0.2-0.7,0.4-1.5,0.4-2.4V150h2v11
			c0,0.4,0,0.9,0,1.5c0,0.6,0,1.1,0.1,1.6H575.6z"/>
		<path class="st1" d="M592.9,155c0-1.2-0.3-2.1-1-2.7c-0.6-0.6-1.6-0.9-2.8-0.9c-0.8,0-1.6,0.1-2.3,0.4c-0.7,0.3-1.3,0.7-1.8,1.2
			l-1.1-1.3c0.6-0.6,1.3-1.1,2.3-1.4c0.9-0.4,2-0.6,3.2-0.6c0.8,0,1.5,0.1,2.1,0.3c0.7,0.2,1.2,0.5,1.7,0.9s0.9,1,1.2,1.6
			c0.3,0.6,0.4,1.4,0.4,2.2v6.2c0,0.5,0,1.1,0.1,1.7c0,0.6,0.1,1.1,0.2,1.5h-1.8c-0.1-0.3-0.1-0.7-0.1-1.1c0-0.4-0.1-0.8-0.1-1.2
			H593c-0.6,0.9-1.4,1.6-2.2,2c-0.8,0.4-1.8,0.6-2.9,0.6c-0.5,0-1.1-0.1-1.7-0.2c-0.6-0.2-1.1-0.4-1.6-0.7c-0.5-0.3-0.9-0.8-1.2-1.3
			c-0.3-0.5-0.5-1.2-0.5-2c0-1.1,0.3-1.9,0.8-2.6s1.3-1.1,2.2-1.4c0.9-0.3,2-0.5,3.2-0.6c1.2-0.1,2.4-0.1,3.7-0.1V155z M592.3,157
			c-0.8,0-1.7,0-2.5,0.1c-0.9,0.1-1.6,0.2-2.3,0.4c-0.7,0.2-1.3,0.5-1.7,0.9c-0.4,0.4-0.7,0.9-0.7,1.6c0,0.5,0.1,0.9,0.3,1.3
			c0.2,0.3,0.4,0.6,0.8,0.8c0.3,0.2,0.7,0.4,1.1,0.4c0.4,0.1,0.8,0.1,1.2,0.1c0.7,0,1.4-0.1,1.9-0.4s1-0.6,1.4-1
			c0.4-0.4,0.7-0.9,0.9-1.5c0.2-0.6,0.3-1.1,0.3-1.8v-1H592.3z"/>
		<path class="st1" d="M603.4,164.1h-2v-22.7h2V164.1z"/>
		<path class="st1" d="M612.5,144.6c0,0.4-0.2,0.8-0.5,1c-0.3,0.3-0.6,0.4-1,0.4s-0.7-0.1-1-0.4c-0.3-0.3-0.5-0.6-0.5-1
			s0.2-0.8,0.5-1c0.3-0.3,0.6-0.4,1-0.4s0.7,0.1,1,0.4C612.4,143.8,612.5,144.2,612.5,144.6z M612.1,164.1h-2v-14h2V164.1z"/>
		<path class="st1" d="M625.1,151.7h-4v8.2c0,0.5,0,1,0.1,1.3c0.1,0.3,0.2,0.6,0.4,0.8c0.2,0.2,0.4,0.3,0.7,0.4
			c0.3,0.1,0.5,0.1,0.8,0.1c0.3,0,0.6,0,0.9-0.1c0.3-0.1,0.6-0.2,0.9-0.3l0.1,1.8c-0.4,0.1-0.7,0.2-1.1,0.3
			c-0.4,0.1-0.8,0.1-1.3,0.1c-0.4,0-0.8-0.1-1.2-0.2s-0.8-0.3-1.2-0.6c-0.4-0.3-0.7-0.7-0.9-1.1c-0.2-0.5-0.3-1.1-0.3-1.9v-8.8h-2.9
			V150h2.9v-4h2v4h4V151.7z"/>
		<path class="st1" d="M634.3,161.9L634.3,161.9l4.4-11.9h2.2l-7,17.7c-0.4,1.1-1,1.9-1.6,2.6c-0.7,0.7-1.6,1-2.8,1
			c-0.6,0-1.2-0.1-1.8-0.2l0.2-1.9c0.5,0.2,1,0.2,1.5,0.2c0.7,0,1.2-0.2,1.7-0.6c0.4-0.4,0.8-1,1-1.8l1.1-2.9l-6-14h2.3L634.3,161.9
			z"/>
		<path class="st1" d="M650.8,157.6H644v-1.7h6.7V157.6z"/>
		<path class="st1" d="M666.1,146.2c-0.5-0.6-1.1-1.2-1.8-1.5c-0.7-0.4-1.6-0.6-2.6-0.6c-0.5,0-1.1,0.1-1.6,0.2
			c-0.5,0.2-1,0.4-1.5,0.7c-0.4,0.3-0.8,0.7-1.1,1.2c-0.3,0.5-0.4,1.1-0.4,1.8c0,0.7,0.1,1.2,0.4,1.7c0.3,0.4,0.6,0.8,1,1.1
			c0.4,0.3,0.9,0.6,1.5,0.8c0.5,0.2,1.1,0.4,1.7,0.6c0.7,0.2,1.5,0.5,2.2,0.8s1.4,0.6,2,1.1c0.6,0.5,1.1,1,1.5,1.7
			c0.4,0.7,0.6,1.6,0.6,2.6c0,1.1-0.2,2-0.6,2.7c-0.4,0.8-0.9,1.4-1.6,1.9s-1.4,0.9-2.2,1.1c-0.8,0.2-1.7,0.4-2.5,0.4
			c-0.6,0-1.3-0.1-1.9-0.2c-0.6-0.1-1.2-0.3-1.8-0.6c-0.6-0.3-1.1-0.6-1.6-1c-0.5-0.4-0.9-0.9-1.3-1.4l1.9-1.4
			c0.5,0.8,1.1,1.4,1.9,1.9s1.8,0.8,2.9,0.8c0.5,0,1.1-0.1,1.7-0.3c0.6-0.2,1.1-0.4,1.5-0.8s0.8-0.8,1.1-1.3s0.4-1.1,0.4-1.8
			c0-0.7-0.1-1.4-0.4-1.8s-0.7-0.9-1.2-1.2c-0.5-0.3-1-0.6-1.6-0.8c-0.6-0.2-1.3-0.4-2-0.7c-0.7-0.2-1.4-0.5-2.1-0.8
			c-0.7-0.3-1.3-0.6-1.8-1.1s-1-1-1.3-1.7s-0.5-1.5-0.5-2.4c0-1,0.2-1.9,0.6-2.6c0.4-0.7,0.9-1.4,1.6-1.8c0.7-0.5,1.4-0.8,2.2-1.1
			c0.8-0.2,1.6-0.3,2.4-0.3c1.4,0,2.7,0.3,3.7,0.8c1,0.5,1.8,1.1,2.3,1.8L666.1,146.2z"/>
		<path class="st1" d="M687.8,157c0,1.1-0.2,2-0.6,2.9c-0.4,0.9-0.9,1.7-1.5,2.3c-0.7,0.7-1.5,1.2-2.4,1.5c-0.9,0.4-1.9,0.6-3,0.6
			c-1.1,0-2.1-0.2-3-0.6c-0.9-0.4-1.7-0.9-2.4-1.5c-0.7-0.7-1.2-1.4-1.5-2.3c-0.4-0.9-0.6-1.9-0.6-2.9s0.2-2,0.6-2.9
			c0.4-0.9,0.9-1.7,1.5-2.3s1.4-1.2,2.4-1.5c0.9-0.4,1.9-0.6,3-0.6c1.1,0,2.1,0.2,3,0.6s1.7,0.9,2.4,1.5s1.2,1.4,1.5,2.3
			C687.6,155,687.8,156,687.8,157z M685.6,157c0-0.8-0.1-1.5-0.4-2.2c-0.3-0.7-0.6-1.3-1.1-1.8c-0.5-0.5-1-0.9-1.7-1.2
			c-0.7-0.3-1.4-0.4-2.2-0.4c-0.8,0-1.6,0.1-2.2,0.4c-0.7,0.3-1.2,0.7-1.7,1.2c-0.5,0.5-0.8,1.1-1.1,1.8c-0.2,0.7-0.4,1.4-0.4,2.2
			c0,0.8,0.1,1.5,0.4,2.2c0.2,0.7,0.6,1.3,1.1,1.8c0.5,0.5,1,0.9,1.7,1.2c0.6,0.3,1.4,0.4,2.2,0.4c0.8,0,1.6-0.1,2.2-0.4
			s1.2-0.7,1.7-1.2s0.8-1.1,1.1-1.8C685.5,158.5,685.6,157.8,685.6,157z"/>
		<path class="st1" d="M699.3,151.7H696v12.3h-2v-12.3H691V150h2.9v-3.8c0-1.6,0.4-2.9,1.2-3.8c0.8-0.9,2-1.4,3.6-1.4
			c0.3,0,0.5,0,0.8,0c0.3,0,0.6,0.1,0.8,0.2l-0.4,1.8c-0.2-0.1-0.4-0.1-0.7-0.2c-0.2,0-0.5-0.1-0.8-0.1c-0.5,0-1,0.1-1.3,0.3
			c-0.3,0.2-0.6,0.4-0.8,0.8c-0.2,0.3-0.3,0.7-0.4,1.2c-0.1,0.4-0.1,0.9-0.1,1.4v3.6h3.3V151.7z"/>
		<path class="st1" d="M709.4,151.7h-4v8.2c0,0.5,0,1,0.1,1.3c0.1,0.3,0.2,0.6,0.4,0.8c0.2,0.2,0.4,0.3,0.7,0.4
			c0.3,0.1,0.5,0.1,0.8,0.1c0.3,0,0.6,0,0.9-0.1c0.3-0.1,0.6-0.2,0.9-0.3l0.1,1.8c-0.4,0.1-0.7,0.2-1.1,0.3
			c-0.4,0.1-0.8,0.1-1.3,0.1c-0.4,0-0.8-0.1-1.2-0.2s-0.8-0.3-1.2-0.6c-0.4-0.3-0.7-0.7-0.9-1.1c-0.2-0.5-0.3-1.1-0.3-1.9v-8.8h-2.9
			V150h2.9v-4h2v4h4V151.7z"/>
		<path class="st1" d="M714.1,150l3.4,11.4h0.1l3.8-11.4h2l3.8,11.4h0.1l3.4-11.4h2.2l-4.4,14H726l-3.8-11.4h-0.1l-3.7,11.4h-2.2
			l-4.4-14H714.1z"/>
		<path class="st1" d="M746.2,155c0-1.2-0.3-2.1-1-2.7c-0.6-0.6-1.6-0.9-2.8-0.9c-0.8,0-1.6,0.1-2.3,0.4c-0.7,0.3-1.3,0.7-1.8,1.2
			l-1.1-1.3c0.6-0.6,1.3-1.1,2.3-1.4c0.9-0.4,2-0.6,3.2-0.6c0.8,0,1.5,0.1,2.1,0.3c0.7,0.2,1.2,0.5,1.7,0.9s0.9,1,1.2,1.6
			c0.3,0.6,0.4,1.4,0.4,2.2v6.2c0,0.5,0,1.1,0.1,1.7c0,0.6,0.1,1.1,0.2,1.5h-1.8c-0.1-0.3-0.1-0.7-0.1-1.1c0-0.4-0.1-0.8-0.1-1.2
			h-0.1c-0.6,0.9-1.4,1.6-2.2,2c-0.8,0.4-1.8,0.6-2.9,0.6c-0.5,0-1.1-0.1-1.7-0.2c-0.6-0.2-1.1-0.4-1.6-0.7
			c-0.5-0.3-0.9-0.8-1.2-1.3c-0.3-0.5-0.5-1.2-0.5-2c0-1.1,0.3-1.9,0.8-2.6s1.3-1.1,2.2-1.4c0.9-0.3,2-0.5,3.2-0.6
			c1.2-0.1,2.4-0.1,3.7-0.1V155z M745.6,157c-0.8,0-1.7,0-2.5,0.1c-0.9,0.1-1.6,0.2-2.3,0.4c-0.7,0.2-1.3,0.5-1.7,0.9
			c-0.4,0.4-0.7,0.9-0.7,1.6c0,0.5,0.1,0.9,0.3,1.3c0.2,0.3,0.4,0.6,0.8,0.8c0.3,0.2,0.7,0.4,1.1,0.4c0.4,0.1,0.8,0.1,1.2,0.1
			c0.7,0,1.4-0.1,1.9-0.4s1-0.6,1.4-1c0.4-0.4,0.7-0.9,0.9-1.5c0.2-0.6,0.3-1.1,0.3-1.8v-1H745.6z"/>
		<path class="st1" d="M754.6,151.6c0-0.6,0-1.1-0.1-1.6h2c0,0.4,0.1,0.8,0.1,1.3c0,0.5,0,0.8,0,1.1h0.1c0.4-0.8,1-1.5,1.8-2
			s1.7-0.8,2.7-0.8c0.3,0,0.5,0,0.7,0c0.2,0,0.4,0.1,0.6,0.1l-0.3,2c-0.1,0-0.3-0.1-0.6-0.1c-0.3,0-0.6-0.1-0.8-0.1
			c-0.5,0-1.1,0.1-1.6,0.3c-0.5,0.2-0.9,0.5-1.3,0.9c-0.4,0.4-0.7,1-0.9,1.6c-0.2,0.7-0.3,1.5-0.3,2.4v7.2h-2v-11
			C754.6,152.7,754.6,152.2,754.6,151.6z"/>
		<path class="st1" d="M778.8,156.6c0,0.1,0,0.3,0,0.4c0,0.2,0,0.3,0,0.5h-11.6c0,0.7,0.2,1.4,0.4,2c0.3,0.6,0.6,1.2,1.1,1.6
			s1,0.8,1.6,1.1c0.6,0.3,1.3,0.4,2,0.4c1.1,0,2-0.2,2.7-0.7c0.8-0.5,1.4-1.1,1.8-1.7l1.5,1.2c-0.8,1.1-1.8,1.8-2.8,2.3
			c-1,0.5-2.1,0.7-3.3,0.7c-1,0-2-0.2-2.9-0.6c-0.9-0.4-1.7-0.9-2.3-1.5c-0.6-0.7-1.1-1.4-1.5-2.3c-0.4-0.9-0.6-1.9-0.6-2.9
			s0.2-2,0.5-2.9c0.4-0.9,0.9-1.7,1.5-2.3s1.4-1.2,2.2-1.5s1.8-0.6,2.8-0.6c1.1,0,2.1,0.2,2.9,0.6s1.5,0.9,2.1,1.5
			c0.6,0.6,1,1.4,1.3,2.2S778.8,155.7,778.8,156.6z M776.8,156c-0.1-1.3-0.5-2.4-1.3-3.3s-1.9-1.3-3.4-1.3c-0.7,0-1.3,0.1-1.9,0.4
			s-1.1,0.6-1.5,1c-0.4,0.4-0.8,0.9-1,1.5c-0.3,0.6-0.4,1.1-0.5,1.7H776.8z"/>
	</g>
	<g>
		<path class="st0" d="M285.3,183.5c6.9,0,11.3,4.8,11.3,11.5c0,6.8-4.5,11.6-11.4,11.6S274,201.7,274,195
			C274,188.2,278.4,183.5,285.3,183.5z M285.3,204c5,0,8.2-3.3,8.2-9c0-5.7-3.3-9-8.3-9c-5,0-8.2,3.3-8.2,9
			C277,200.7,280.3,204,285.3,204z"/>
		<path class="st0" d="M304.3,204.6c0,0.5,0,0.8-0.2,1.1c-0.3,0.4-0.8,0.5-1.2,0.5c-0.6,0-1-0.2-1.2-0.5c-0.2-0.3-0.2-0.6-0.2-1.1
			V185c0-0.8,0.5-1.3,1.4-1.3c1,0,1.4,0.5,2.2,1.5l12.4,15.7v-15.5c0-0.5,0-0.8,0.2-1.1c0.3-0.4,0.8-0.5,1.2-0.5
			c0.6,0,1,0.2,1.2,0.5c0.2,0.3,0.2,0.6,0.2,1.1v19.6c0,0.8-0.4,1.2-1.3,1.2c-0.9,0-1.3-0.5-2.1-1.5L304.3,189V204.6z"/>
		<path class="st0" d="M329.6,192.9h5.3c0.4,0,0.8,0,1.1,0.2c0.3,0.2,0.4,0.5,0.4,1.1c0,0.5-0.2,0.9-0.4,1.1
			c-0.3,0.2-0.6,0.2-1.1,0.2h-5.3v7.9h7.5c0.4,0,0.8,0,1.1,0.2c0.3,0.2,0.4,0.5,0.4,1.1c0,0.5-0.2,0.9-0.4,1.1
			c-0.3,0.2-0.6,0.2-1.1,0.2h-9c-1.1,0-1.4-0.4-1.4-1.4v-19.1c0-1,0.4-1.4,1.4-1.4h8.1c0.4,0,0.8,0,1.1,0.2c0.3,0.2,0.4,0.5,0.4,1.1
			c0,0.5-0.2,0.9-0.4,1.1c-0.3,0.2-0.6,0.2-1.1,0.2h-6.6V192.9z"/>
		<path class="st0" d="M365.9,185.3c0.3-0.9,0.7-1.5,1.8-1.5c1,0,1.4,0.4,1.4,1c0,0.3-0.1,0.6-0.2,1l-7.6,18.9
			c-0.4,1.1-0.8,1.7-1.8,1.7c-1,0-1.4-0.7-1.8-1.8l-7.4-18.9c-0.1-0.4-0.2-0.6-0.2-0.9c0-0.6,0.5-1,1.4-1c1.2,0,1.5,0.5,1.9,1.5
			l6.3,16.7L365.9,185.3z"/>
		<path class="st0" d="M376.2,192.9h5.3c0.4,0,0.8,0,1.1,0.2c0.3,0.2,0.4,0.5,0.4,1.1c0,0.5-0.2,0.9-0.4,1.1
			c-0.3,0.2-0.6,0.2-1.1,0.2h-5.3v7.9h7.5c0.4,0,0.8,0,1.1,0.2c0.3,0.2,0.4,0.5,0.4,1.1c0,0.5-0.2,0.9-0.4,1.1
			c-0.3,0.2-0.6,0.2-1.1,0.2h-9c-1.1,0-1.4-0.4-1.4-1.4v-19.1c0-1,0.4-1.4,1.4-1.4h8.1c0.4,0,0.8,0,1.1,0.2c0.3,0.2,0.4,0.5,0.4,1.1
			c0,0.5-0.2,0.9-0.4,1.1c-0.3,0.2-0.6,0.2-1.1,0.2h-6.6V192.9z"/>
		<path class="st0" d="M392.9,204.6c0,0.5,0,0.8-0.2,1.1c-0.3,0.4-0.8,0.5-1.2,0.5c-0.6,0-1-0.2-1.2-0.5c-0.2-0.3-0.2-0.6-0.2-1.1
			V185c0-0.8,0.5-1.3,1.4-1.3c1,0,1.4,0.5,2.2,1.5L406,201v-15.5c0-0.5,0-0.8,0.2-1.1c0.3-0.4,0.8-0.5,1.2-0.5c0.6,0,1,0.2,1.2,0.5
			c0.2,0.3,0.2,0.6,0.2,1.1v19.6c0,0.8-0.4,1.2-1.3,1.2c-0.9,0-1.3-0.5-2.1-1.5L392.9,189V204.6z"/>
		<path class="st0" d="M430.1,204.1c-2.8,1.8-6.2,2.2-9.2,2.2c-2,0-3.7-0.2-4.6-0.4c-0.8-0.3-1-0.7-1-1.7V186c0-1.1,0.3-1.6,1.6-1.8
			c1-0.2,2.7-0.3,4.6-0.3c3.6,0,6.6,0.5,9,2.1c2.3,1.6,4.1,4.5,4.1,8.9C434.6,199.7,432.5,202.5,430.1,204.1z M418.3,203.6
			c0,0,1.1,0.2,3.1,0.2c3,0,10.2-0.4,10.2-8.6c0-3.4-1.3-5.6-3-7c-1.7-1.3-3.9-1.8-6.9-1.8c-2.1,0-3.3,0.2-3.3,0.2V203.6z"/>
		<path class="st0" d="M449.2,183.5c6.9,0,11.3,4.8,11.3,11.5c0,6.8-4.5,11.6-11.4,11.6c-6.9,0-11.3-4.8-11.3-11.5
			C437.8,188.2,442.2,183.5,449.2,183.5z M449.2,204c5,0,8.2-3.3,8.2-9c0-5.7-3.3-9-8.3-9c-5,0-8.2,3.3-8.2,9
			C440.9,200.7,444.1,204,449.2,204z"/>
		<path class="st0" d="M468.2,204.6c0,0.5,0,0.8-0.2,1.1s-0.6,0.5-1.3,0.5c-0.6,0-1.1-0.2-1.3-0.5s-0.2-0.6-0.2-1.1V186
			c0-0.9,0-1.6,1.5-1.9c0.7-0.2,1.9-0.3,3.3-0.3c1.7,0,3.7,0.2,5.2,1c2,1,3.1,2.8,3.1,5.2c0,2.8-1.5,5-4.3,6.1l6.1,8.5
			c0.5,0.7,0.4,1.7-1.2,1.7c-1.2,0-1.6-0.5-2.1-1.3l-4-5.7c-1.1-1.5-1.6-2.5-1.6-2.5s-0.7,0.1-1.8,0.1c-0.9,0-1.3-0.1-1.3-0.1V204.6
			z M468.2,194.4c0,0,0.4,0.1,1.3,0.1c3.6,0,5.7-1.3,5.7-4.2c0-3.1-2.4-3.9-5.1-3.9c-1.1,0-2,0.1-2,0.1V194.4z"/>
		<path class="st0" d="M494.4,180.6v34h-2v-34H494.4z"/>
		<path class="st0" d="M518.4,183.5c6.9,0,11.3,4.8,11.3,11.5c0,6.8-4.5,11.6-11.4,11.6c-6.9,0-11.3-4.8-11.3-11.5
			C507,188.2,511.5,183.5,518.4,183.5z M518.4,204c5,0,8.2-3.3,8.2-9c0-5.7-3.3-9-8.3-9c-5,0-8.2,3.3-8.2,9
			C510.1,200.7,513.3,204,518.4,204z"/>
		<path class="st0" d="M537.3,204.6c0,0.5,0,0.8-0.2,1.1c-0.3,0.4-0.8,0.5-1.2,0.5c-0.6,0-1-0.2-1.2-0.5c-0.2-0.3-0.2-0.6-0.2-1.1
			V185c0-0.8,0.5-1.3,1.4-1.3c1,0,1.4,0.5,2.2,1.5l12.4,15.7v-15.5c0-0.5,0-0.8,0.2-1.1c0.3-0.4,0.8-0.5,1.2-0.5
			c0.6,0,1,0.2,1.2,0.5c0.2,0.3,0.2,0.6,0.2,1.1v19.6c0,0.8-0.4,1.2-1.3,1.2c-0.9,0-1.3-0.5-2.1-1.5L537.3,189V204.6z"/>
		<path class="st0" d="M562.7,192.9h5.3c0.4,0,0.8,0,1.1,0.2c0.3,0.2,0.4,0.5,0.4,1.1c0,0.5-0.2,0.9-0.4,1.1
			c-0.3,0.2-0.6,0.2-1.1,0.2h-5.3v7.9h7.5c0.4,0,0.8,0,1.1,0.2c0.3,0.2,0.4,0.5,0.4,1.1c0,0.5-0.2,0.9-0.4,1.1
			c-0.3,0.2-0.6,0.2-1.1,0.2h-9c-1.1,0-1.4-0.4-1.4-1.4v-19.1c0-1,0.4-1.4,1.4-1.4h8.1c0.4,0,0.8,0,1.1,0.2c0.3,0.2,0.4,0.5,0.4,1.1
			c0,0.5-0.2,0.9-0.4,1.1c-0.3,0.2-0.6,0.2-1.1,0.2h-6.6V192.9z"/>
		<path class="st0" d="M592.8,194.3c2,1.2,3.7,3,3.7,5.9c0,4.1-3.3,6.3-7,6.3c-1.6,0-3.3-0.4-4.6-1.2c-0.8-0.5-1.5-1.2-1.5-1.8
			c0-0.6,0.5-1.4,1.2-1.4c1,0,2.1,1.9,4.8,1.9c2.3,0,4.1-1.4,4.1-3.6c0-2-1.5-3.2-2.9-4c-2.2-1.2-6.7-2.8-6.7-7
			c0-3.3,2.8-5.6,6.6-5.6c2.9,0,5.5,1.3,5.5,2.5c0,0.6-0.5,1.4-1.2,1.4c-1,0-2-1.4-4.3-1.4c-2.1,0-3.6,1.2-3.6,3
			C586.9,191.8,590.5,192.9,592.8,194.3z"/>
		<path class="st0" d="M613.6,185.2c0.5-0.8,0.9-1.4,2.1-1.4c1,0,1.3,0.3,1.3,0.8c0,0.3-0.2,0.7-0.5,1.2l-7.4,11.7v7.1
			c0,0.5,0,0.8-0.2,1.1s-0.7,0.5-1.3,0.5c-0.6,0-1.1-0.2-1.3-0.5s-0.2-0.6-0.2-1.1v-7.1l-7.1-11.6c-0.3-0.5-0.5-0.8-0.5-1.2
			c0-0.5,0.5-0.8,1.4-0.8c1.2,0,1.6,0.5,2.2,1.4l5.6,9.6L613.6,185.2z"/>
		<path class="st0" d="M628.3,194.3c2,1.2,3.7,3,3.7,5.9c0,4.1-3.3,6.3-7,6.3c-1.6,0-3.3-0.4-4.6-1.2c-0.8-0.5-1.5-1.2-1.5-1.8
			c0-0.6,0.5-1.4,1.2-1.4c1,0,2.1,1.9,4.8,1.9c2.3,0,4.1-1.4,4.1-3.6c0-2-1.5-3.2-2.9-4c-2.2-1.2-6.7-2.8-6.7-7
			c0-3.3,2.8-5.6,6.6-5.6c2.9,0,5.5,1.3,5.5,2.5c0,0.6-0.5,1.4-1.2,1.4c-1,0-2-1.4-4.3-1.4c-2.1,0-3.6,1.2-3.6,3
			C622.4,191.8,625.9,192.9,628.3,194.3z"/>
		<path class="st0" d="M644,204.6c0,0.5,0,0.8-0.2,1.1s-0.7,0.5-1.3,0.5c-0.6,0-1.1-0.2-1.3-0.5s-0.2-0.6-0.2-1.1v-18h-5.9
			c-0.4,0-0.8,0-1.1-0.2c-0.3-0.2-0.4-0.5-0.4-1.1c0-0.5,0.2-0.9,0.4-1.1c0.3-0.2,0.6-0.2,1.1-0.2H650c0.4,0,0.8,0,1.1,0.2
			c0.3,0.2,0.4,0.5,0.4,1.1c0,0.5-0.2,0.9-0.4,1.1c-0.3,0.2-0.6,0.2-1.1,0.2H644V204.6z"/>
		<path class="st0" d="M658.1,192.9h5.3c0.4,0,0.8,0,1.1,0.2c0.3,0.2,0.4,0.5,0.4,1.1c0,0.5-0.2,0.9-0.4,1.1
			c-0.3,0.2-0.6,0.2-1.1,0.2h-5.3v7.9h7.5c0.4,0,0.8,0,1.1,0.2c0.3,0.2,0.4,0.5,0.4,1.1c0,0.5-0.2,0.9-0.4,1.1
			c-0.3,0.2-0.6,0.2-1.1,0.2h-9c-1.1,0-1.4-0.4-1.4-1.4v-19.1c0-1,0.4-1.4,1.4-1.4h8.1c0.4,0,0.8,0,1.1,0.2c0.3,0.2,0.4,0.5,0.4,1.1
			c0,0.5-0.2,0.9-0.4,1.1c-0.3,0.2-0.6,0.2-1.1,0.2h-6.6V192.9z"/>
		<path class="st0" d="M691.2,185.4c0.4-0.9,0.8-1.6,2-1.6c0.4,0,0.8,0.1,1.1,0.4c0.2,0.2,0.3,0.6,0.4,1.4l1.8,18.5
			c0,0.3,0.1,0.8,0.1,1c0,0.7-0.3,1.1-1.4,1.1c-1,0-1.5-0.4-1.5-1.2l-1.4-15.9l-6.9,14.2c-0.4,0.8-0.6,1.4-1.5,1.4
			c-0.8,0-1.1-0.5-1.5-1.4l-6.8-14.3l-1.5,15.9c-0.1,0.7-0.3,1.2-1.5,1.2c-1,0-1.4-0.4-1.4-1.2c0-0.3,0.1-0.5,0.1-0.9l1.9-18.6
			c0.1-0.6,0.1-1.1,0.5-1.4c0.2-0.2,0.6-0.4,1.2-0.4c1.1,0,1.5,0.6,1.9,1.6l7.2,15L691.2,185.4z"/>
	</g>
</g>
</svg>
