<?xml version="1.0" encoding="utf-8"?>
<!-- Generator: Adobe Illustrator 20.1.0, SVG Export Plug-In . SVG Version: 6.00 Build 0)  -->
<svg version="1.1" id="Layer_1" xmlns="http://www.w3.org/2000/svg" xmlns:xlink="http://www.w3.org/1999/xlink" x="0px" y="0px"
	 viewBox="0 0 673 768" style="enable-background:new 0 0 673 768;" xml:space="preserve">
<g>
	<path d="M0,462.5v119.6c59,39.7,126.4,65,196.9,73.8l-65.1-61.7L0,462.5z"/>
	<path d="M454.5,614.9c7.6-4.3,15-8.9,22.3-13.7C677.3,469.8,733.4,200.6,601.9,0H229.7C101.4,4.9-0.1,110.4,0,238.8v192.4
		L336.8,768h270.1L454.5,616.2V614.9z M240.6,440.3c-111,0-201.1-90-201.1-201.1c0-111,90-201.1,201.1-201.1s201.1,90,201.1,201.1
		C441.7,350.3,351.6,440.3,240.6,440.3z"/>
</g>
</svg>
