<?xml version="1.0" encoding="utf-8"?>
<!-- Generator: Adobe Illustrator 23.0.4, SVG Export Plug-In . SVG Version: 6.00 Build 0)  -->
<svg version="1.1" id="Layer_1" xmlns="http://www.w3.org/2000/svg" xmlns:xlink="http://www.w3.org/1999/xlink" x="0px" y="0px"
	 viewBox="0 0 264.2 91.3" style="enable-background:new 0 0 264.2 91.3;" xml:space="preserve">
<style type="text/css">
	.st0{fill:#563A95;}
	.st1{fill:#FFFFFF;}
</style>
<g>
	<path class="st0" d="M103.3,39.9c0,3.4-0.6,6.4-1.7,8.9c-1.1,2.5-2.7,4.6-4.7,6.1l6,4.7l-5.5,4.7L89.5,58c-0.7,0.1-1.5,0.2-2.2,0.2
		c-3.1,0-5.9-0.7-8.4-2.2c-2.4-1.5-4.3-3.5-5.7-6.2c-1.4-2.7-2.1-5.8-2.1-9.3v-2c0-3.6,0.7-6.8,2-9.6c1.3-2.8,3.2-4.9,5.7-6.4
		c2.5-1.5,5.3-2.3,8.5-2.3c3.1,0,5.9,0.7,8.4,2.2c2.5,1.5,4.4,3.6,5.7,6.4c1.4,2.7,2,5.9,2.1,9.4V39.9z M94.3,38.4
		c0-3.7-0.6-6.5-1.8-8.4c-1.2-1.9-3-2.9-5.3-2.9c-2.3,0-4.1,0.9-5.3,2.8c-1.2,1.9-1.8,4.6-1.8,8.2v1.7c0,3.6,0.6,6.4,1.8,8.4
		c1.2,1.9,3,2.9,5.3,2.9c2.3,0,4-1,5.2-2.9c1.2-1.9,1.8-4.7,1.8-8.2V38.4z"/>
	<path class="st0" d="M122.9,45h-15.2v-6.6h15.2V45z"/>
	<path class="st0" d="M137.5,45.1v12.5h-8.9V20.7h14.7c2.8,0,5.3,0.5,7.5,1.6c2.2,1,3.9,2.5,5,4.4s1.8,4.1,1.8,6.5
		c0,3.6-1.3,6.5-3.9,8.6s-6.1,3.2-10.6,3.2H137.5z M137.5,38.2h5.8c1.7,0,3-0.4,3.9-1.3c0.9-0.9,1.4-2.1,1.4-3.7
		c0-1.7-0.5-3.1-1.4-4.1c-0.9-1-2.2-1.6-3.8-1.6h-5.9V38.2z"/>
	<path class="st0" d="M177.1,54.7c-1.8,2.3-4.3,3.5-7.3,3.5c-3,0-5.3-0.9-6.8-2.6c-1.5-1.7-2.3-4.3-2.3-7.5V30.2h8.5V48
		c0,2.3,1.1,3.5,3.4,3.5c2,0,3.4-0.7,4.2-2.1V30.2h8.6v27.4h-8L177.1,54.7z"/>
	<path class="st0" d="M197.7,57.6h-8.6V18.7h8.6V57.6z"/>
	<path class="st0" d="M216.1,49.9c0-0.7-0.4-1.3-1.1-1.7s-2.2-0.9-4.3-1.4c-2.1-0.5-3.9-1.1-5.3-1.9c-1.4-0.8-2.4-1.7-3.2-2.8
		c-0.7-1.1-1.1-2.4-1.1-3.8c0-2.5,1-4.6,3.1-6.2c2.1-1.6,4.8-2.4,8.2-2.4c3.6,0,6.5,0.8,8.7,2.5c2.2,1.6,3.3,3.8,3.3,6.5h-8.6
		c0-2.2-1.2-3.3-3.5-3.3c-0.9,0-1.6,0.2-2.3,0.7c-0.6,0.5-0.9,1.1-0.9,1.9c0,0.8,0.4,1.4,1.1,1.9s1.9,0.9,3.6,1.2
		c1.6,0.3,3.1,0.7,4.3,1.1c4.1,1.4,6.2,4,6.2,7.6c0,2.5-1.1,4.5-3.3,6.1s-5.1,2.4-8.6,2.4c-2.3,0-4.4-0.4-6.3-1.3
		c-1.8-0.8-3.3-2-4.3-3.4c-1-1.5-1.5-3-1.5-4.6h8c0,1.3,0.5,2.2,1.3,2.8c0.8,0.6,1.9,0.9,3.1,0.9c1.2,0,2-0.2,2.6-0.7
		C215.8,51.3,216.1,50.7,216.1,49.9z"/>
	<path class="st0" d="M240.3,58.2c-4.2,0-7.6-1.3-10.2-3.8c-2.6-2.5-3.9-5.8-3.9-9.8v-0.7c0-2.8,0.5-5.3,1.6-7.4
		c1-2.1,2.6-3.8,4.6-5c2-1.2,4.4-1.8,7.1-1.8c3.9,0,6.9,1.2,9.1,3.6c2.2,2.4,3.3,5.7,3.3,10v3.3h-17c0.3,1.5,1,2.7,2,3.6
		s2.4,1.3,4,1.3c2.7,0,4.8-0.9,6.3-2.8l3.9,4.6c-1.1,1.5-2.6,2.6-4.5,3.5C244.6,57.7,242.5,58.2,240.3,58.2z M239.3,36.3
		c-2.5,0-4,1.7-4.5,5h8.6v-0.7c0-1.4-0.3-2.4-1-3.2C241.7,36.7,240.6,36.3,239.3,36.3z"/>
	<path class="st0" d="M252.2,35.9c0-1,0.2-1.9,0.7-2.8s1.1-1.5,1.9-2c0.8-0.5,1.7-0.7,2.6-0.7c0.9,0,1.8,0.2,2.6,0.7
		c0.8,0.5,1.4,1.2,1.9,2c0.5,0.8,0.7,1.8,0.7,2.8c0,1-0.2,1.9-0.7,2.8s-1.1,1.5-1.9,2c-0.8,0.5-1.7,0.7-2.6,0.7
		c-0.9,0-1.8-0.2-2.6-0.7c-0.8-0.5-1.4-1.2-1.9-2S252.2,36.8,252.2,35.9z M253.1,35.9c0,0.8,0.2,1.6,0.5,2.3
		c0.4,0.7,0.9,1.3,1.6,1.7c0.7,0.4,1.4,0.6,2.2,0.6c0.8,0,1.5-0.2,2.2-0.6c0.7-0.4,1.2-1,1.6-1.7c0.4-0.7,0.6-1.5,0.6-2.3
		s-0.2-1.6-0.6-2.3c-0.4-0.7-0.9-1.3-1.6-1.7c-0.7-0.4-1.4-0.6-2.2-0.6c-0.8,0-1.5,0.2-2.2,0.6c-0.7,0.4-1.2,1-1.6,1.7
		C253.3,34.3,253.1,35,253.1,35.9z M256.4,36.4v2.5h-1.1v-6.3h2.1c0.8,0,1.3,0.2,1.8,0.5c0.4,0.3,0.6,0.8,0.6,1.4
		c0,0.5-0.3,1-0.8,1.3c0.3,0.2,0.5,0.4,0.6,0.6c0.1,0.3,0.2,0.6,0.2,1s0,0.7,0,0.9c0,0.2,0.1,0.3,0.1,0.4v0.1h-1.1
		c-0.1-0.2-0.1-0.6-0.1-1.4c0-0.4-0.1-0.6-0.2-0.8c-0.2-0.2-0.4-0.2-0.8-0.2H256.4z M256.4,35.4h0.9c0.4,0,0.7-0.1,0.9-0.2
		c0.2-0.2,0.4-0.4,0.4-0.6c0-0.3-0.1-0.6-0.3-0.7c-0.2-0.1-0.5-0.2-0.9-0.2h-1V35.4z"/>
</g>
<g>
	<g>
		<path class="st0" d="M27.7,51.7c0.9,0.2,1.9,0.3,2.8,0.3c6.9,0,12.5-5.6,12.5-12.5s-5.6-12.5-12.5-12.5s-12.5,5.6-12.5,12.5
			c0,1,0.1,1.9,0.3,2.8l-7.7-7.7c2.2-8.9,10.2-15.6,19.8-15.6c11.3,0,20.4,9.1,20.4,20.4c0,6.6-3.1,12.4-7.9,16.1l5.7,5.7
			c6.2-5.2,10.2-13,10.2-21.8c0-15.7-12.7-28.3-28.3-28.3S2.2,23.9,2.2,39.6s12.7,28.3,28.3,28.3c3.9,0,7.7-0.8,11.1-2.3L27.7,51.7z
			"/>
		<path class="st1" d="M43,55.7l5.7,5.7c-2.1,1.7-4.5,3.2-7,4.3l-14-14c0.9,0.2,1.9,0.3,2.8,0.3c6.9,0,12.5-5.6,12.5-12.5
			c0-6.9-5.6-12.5-12.5-12.5c-6.9,0-12.5,5.6-12.5,12.5c0,1,0.1,1.9,0.3,2.8l-7.7-7.7c2.2-8.9,10.2-15.6,19.8-15.6
			c11.3,0,20.4,9.1,20.4,20.4C51,46.2,47.9,52,43,55.7z"/>
	</g>
	<path class="st1" d="M31.4,60c-0.3,0-0.6,0-0.9,0c-11.3,0-20.4-9.1-20.4-20.4c0-0.3,0-0.6,0-0.9L31.4,60z"/>
</g>
<g>
	<path class="st0" d="M119.6,82.4c-0.1-0.2-0.2-0.5-0.2-1c-0.8,0.8-1.7,1.2-2.7,1.2c-0.9,0-1.7-0.3-2.3-0.8s-0.9-1.2-0.9-2
		c0-1,0.4-1.8,1.1-2.3s1.8-0.8,3.2-0.8h1.6v-0.7c0-0.6-0.2-1-0.5-1.4s-0.8-0.5-1.5-0.5c-0.6,0-1.1,0.1-1.5,0.4s-0.6,0.6-0.6,1.1
		h-1.6c0-0.5,0.2-0.9,0.5-1.4s0.8-0.8,1.4-1s1.2-0.4,1.9-0.4c1.1,0,2,0.3,2.6,0.8s0.9,1.3,1,2.3v4.4c0,0.9,0.1,1.6,0.3,2.1v0.1
		H119.6z M116.9,81.2c0.5,0,1-0.1,1.5-0.4s0.8-0.6,1-1v-2H118c-2,0-3,0.6-3,1.7c0,0.5,0.2,0.9,0.5,1.2S116.3,81.2,116.9,81.2z"/>
	<path class="st0" d="M124.1,72.9l0.1,1.2c0.7-0.9,1.7-1.4,2.8-1.4c2,0,3,1.1,3,3.4v6.3h-1.6v-6.3c0-0.7-0.2-1.2-0.5-1.5
		s-0.8-0.5-1.4-0.5c-0.5,0-1,0.1-1.4,0.4s-0.7,0.7-0.9,1.1v6.8h-1.6v-9.5H124.1z"/>
	<path class="st0" d="M134.8,70.4c0-0.4,0.1-0.7,0.4-0.9s0.6-0.4,1-0.4c0.2,0,0.4,0,0.6,0.1s0.3,0.2,0.4,0.3s0.2,0.3,0.3,0.4
		s0.1,0.3,0.1,0.5c0,0.2,0,0.4-0.1,0.5s-0.2,0.3-0.3,0.4s-0.3,0.2-0.4,0.3s-0.4,0.1-0.6,0.1s-0.4,0-0.6-0.1s-0.3-0.2-0.4-0.3
		s-0.2-0.3-0.3-0.4S134.8,70.6,134.8,70.4z M137.5,82.4H135v-9.5h2.5V82.4z"/>
	<path class="st0" d="M138.3,77.6c0-0.7,0.1-1.4,0.3-2s0.4-1.1,0.7-1.5s0.7-0.8,1.2-1s1-0.4,1.6-0.4c0.5,0,0.9,0.1,1.3,0.3
		s0.7,0.4,1,0.8v-4.9h2.5v13.5h-2.3l-0.1-1c-0.3,0.4-0.6,0.7-1,0.9s-0.9,0.3-1.4,0.3c-0.6,0-1.1-0.1-1.6-0.4c-0.5-0.2-0.8-0.6-1.2-1
		s-0.6-0.9-0.7-1.5s-0.3-1.2-0.3-1.9V77.6z M140.8,77.8c0,0.4,0,0.7,0.1,1.1s0.2,0.6,0.3,0.9s0.3,0.4,0.6,0.6
		c0.2,0.1,0.5,0.2,0.8,0.2c0.4,0,0.8-0.1,1-0.3s0.5-0.4,0.6-0.7v-3.8c-0.2-0.3-0.4-0.6-0.6-0.7s-0.6-0.3-1-0.3
		c-0.3,0-0.6,0.1-0.9,0.2s-0.4,0.3-0.6,0.6s-0.2,0.5-0.3,0.9s-0.1,0.7-0.1,1.1V77.8z"/>
	<path class="st0" d="M152.3,82.6c-0.7,0-1.4-0.1-2-0.4s-1.1-0.6-1.5-1s-0.7-0.9-0.9-1.5s-0.3-1.2-0.3-1.8v-0.3c0-0.7,0.1-1.4,0.3-2
		s0.5-1.1,0.9-1.6s0.8-0.8,1.4-1s1.2-0.4,1.8-0.4c0.7,0,1.3,0.1,1.8,0.3s1,0.5,1.3,0.9s0.6,0.9,0.8,1.5s0.3,1.2,0.3,1.9v1.1h-6.1
		c0,0.3,0.1,0.6,0.3,0.8s0.3,0.5,0.5,0.6s0.4,0.3,0.7,0.4s0.6,0.1,0.9,0.1c0.5,0,0.9-0.1,1.3-0.3s0.7-0.4,1-0.8l1.2,1.4
		c-0.2,0.2-0.3,0.4-0.6,0.6s-0.5,0.4-0.8,0.5s-0.7,0.3-1,0.4S152.8,82.6,152.3,82.6z M152,74.8c-0.3,0-0.5,0-0.7,0.1
		s-0.4,0.2-0.5,0.4s-0.3,0.4-0.4,0.6s-0.2,0.5-0.2,0.8h3.5v-0.2c0-0.3,0-0.5-0.1-0.7s-0.2-0.4-0.3-0.6s-0.3-0.3-0.5-0.4
		S152.3,74.8,152,74.8z"/>
	<path class="st0" d="M162.3,82.4c-0.1-0.2-0.2-0.5-0.3-0.9c-0.3,0.3-0.6,0.5-1,0.7s-0.9,0.3-1.4,0.3c-0.5,0-0.9-0.1-1.3-0.2
		s-0.7-0.3-1-0.6s-0.5-0.6-0.7-0.9s-0.2-0.7-0.2-1.1c0-0.5,0.1-0.9,0.3-1.3s0.5-0.7,0.8-1s0.8-0.5,1.4-0.6s1.2-0.2,1.9-0.2h1.1V76
		c0-0.4-0.1-0.8-0.3-1.1s-0.6-0.4-1.1-0.4c-0.4,0-0.8,0.1-1,0.3s-0.4,0.5-0.4,0.8h-2.5c0-0.4,0.1-0.8,0.3-1.2s0.5-0.7,0.8-1
		s0.8-0.5,1.3-0.7s1.1-0.2,1.7-0.2c0.6,0,1.1,0.1,1.5,0.2s0.9,0.3,1.2,0.6s0.6,0.6,0.8,1s0.3,0.9,0.3,1.5v4c0,0.3,0,0.5,0,0.7
		s0,0.4,0.1,0.6s0.1,0.3,0.1,0.5s0.1,0.3,0.2,0.4v0.1H162.3z M160.2,80.6c0.2,0,0.4,0,0.6-0.1s0.4-0.1,0.5-0.2s0.3-0.2,0.4-0.3
		s0.2-0.2,0.3-0.3v-1.6h-1c-0.3,0-0.6,0-0.9,0.1s-0.4,0.2-0.6,0.3s-0.3,0.3-0.4,0.5s-0.1,0.4-0.1,0.6c0,0.3,0.1,0.6,0.3,0.8
		S159.8,80.6,160.2,80.6z"/>
	<path class="st0" d="M165.2,77.6c0-0.7,0.1-1.4,0.3-2s0.4-1.1,0.8-1.5s0.7-0.8,1.2-1s1-0.4,1.6-0.4c0.6,0,1,0.1,1.4,0.3
		s0.7,0.5,1,0.8l0.1-0.9h2.3v9.2c0,0.7-0.1,1.2-0.3,1.7s-0.5,0.9-0.9,1.3s-0.9,0.6-1.4,0.8s-1.2,0.3-1.9,0.3c-0.3,0-0.6,0-0.9-0.1
		s-0.7-0.1-1-0.3s-0.6-0.3-0.9-0.5s-0.5-0.4-0.7-0.7l1.1-1.5c0.3,0.3,0.6,0.6,1,0.8s0.8,0.3,1.3,0.3c0.7,0,1.2-0.2,1.6-0.5
		s0.6-0.9,0.6-1.5v-0.5c-0.3,0.3-0.6,0.6-1,0.7s-0.8,0.3-1.3,0.3c-0.6,0-1.1-0.1-1.6-0.4s-0.9-0.6-1.2-1s-0.6-0.9-0.8-1.5
		s-0.3-1.2-0.3-1.9V77.6z M167.7,77.8c0,0.4,0,0.7,0.1,1.1s0.2,0.6,0.4,0.9s0.4,0.4,0.6,0.6s0.5,0.2,0.9,0.2c0.4,0,0.7-0.1,1-0.2
		s0.5-0.4,0.6-0.6v-4c-0.2-0.3-0.4-0.5-0.6-0.6s-0.6-0.2-1-0.2c-0.3,0-0.6,0.1-0.9,0.2s-0.4,0.3-0.6,0.6s-0.3,0.5-0.4,0.9
		s-0.1,0.7-0.1,1.1V77.8z"/>
	<path class="st0" d="M179.3,82.6c-0.7,0-1.4-0.1-2-0.4s-1.1-0.6-1.5-1s-0.7-0.9-0.9-1.5s-0.3-1.2-0.3-1.8v-0.3c0-0.7,0.1-1.4,0.3-2
		s0.5-1.1,0.9-1.6s0.8-0.8,1.4-1s1.2-0.4,1.8-0.4c0.7,0,1.3,0.1,1.8,0.3s1,0.5,1.3,0.9s0.6,0.9,0.8,1.5s0.3,1.2,0.3,1.9v1.1h-6.1
		c0,0.3,0.1,0.6,0.3,0.8s0.3,0.5,0.5,0.6s0.4,0.3,0.7,0.4s0.6,0.1,0.9,0.1c0.5,0,0.9-0.1,1.3-0.3s0.7-0.4,1-0.8l1.2,1.4
		c-0.2,0.2-0.3,0.4-0.6,0.6s-0.5,0.4-0.8,0.5s-0.7,0.3-1,0.4S179.7,82.6,179.3,82.6z M179,74.8c-0.3,0-0.5,0-0.7,0.1
		s-0.4,0.2-0.5,0.4s-0.3,0.4-0.4,0.6s-0.2,0.5-0.2,0.8h3.5v-0.2c0-0.3,0-0.5-0.1-0.7s-0.2-0.4-0.3-0.6s-0.3-0.3-0.5-0.4
		S179.3,74.8,179,74.8z"/>
	<path class="st0" d="M186.1,72.9l0.1,1.1c0.3-0.4,0.7-0.7,1.2-0.9s1-0.3,1.5-0.3c0.5,0,0.9,0.1,1.2,0.2s0.7,0.3,0.9,0.6
		s0.5,0.7,0.6,1.1s0.2,1,0.2,1.7v6h-2.5v-6.1c0-0.3,0-0.6-0.1-0.8s-0.2-0.4-0.3-0.5s-0.3-0.2-0.5-0.3s-0.4-0.1-0.7-0.1
		c-0.4,0-0.7,0.1-1,0.2s-0.5,0.4-0.6,0.7v6.7h-2.5v-9.5H186.1z"/>
	<path class="st0" d="M204.8,77.7c0,1.4-0.3,2.6-1,3.5s-1.6,1.3-2.7,1.3c-1.2,0-2.1-0.4-2.7-1.1v4.6h-1.6V72.9h1.5l0.1,1.1
		c0.7-0.8,1.6-1.2,2.8-1.2c1.1,0,2,0.4,2.7,1.3s1,2.1,1,3.6V77.7z M203.1,77.6c0-1.1-0.2-1.9-0.7-2.5s-1.1-0.9-1.9-0.9
		c-1,0-1.7,0.4-2.2,1.3v4.5c0.5,0.9,1.2,1.3,2.2,1.3c0.8,0,1.4-0.3,1.9-0.9S203.1,78.8,203.1,77.6z"/>
	<path class="st0" d="M210.5,74.3c-0.2,0-0.5-0.1-0.8-0.1c-1.1,0-1.8,0.5-2.2,1.4v6.8h-1.6v-9.5h1.6l0,1.1c0.5-0.8,1.3-1.3,2.3-1.3
		c0.3,0,0.6,0,0.7,0.1V74.3z"/>
	<path class="st0" d="M210.5,77.6c0-0.9,0.2-1.8,0.5-2.5s0.9-1.3,1.5-1.7s1.4-0.6,2.2-0.6c1.3,0,2.3,0.4,3.1,1.3s1.2,2.1,1.2,3.6
		v0.1c0,0.9-0.2,1.8-0.5,2.5s-0.9,1.3-1.5,1.7s-1.4,0.6-2.3,0.6c-1.3,0-2.3-0.4-3.1-1.3s-1.2-2.1-1.2-3.6V77.6z M212.2,77.7
		c0,1.1,0.2,1.9,0.7,2.5s1.1,1,2,1c0.8,0,1.5-0.3,2-1c0.5-0.6,0.7-1.6,0.7-2.7c0-1-0.2-1.9-0.7-2.5s-1.2-1-2-1c-0.8,0-1.5,0.3-1.9,1
		S212.2,76.6,212.2,77.7z"/>
	<path class="st0" d="M219.9,77.6c0-1.5,0.3-2.6,1-3.5s1.6-1.3,2.7-1.3c1.1,0,2,0.4,2.6,1.1v-5h1.6v13.5h-1.5l-0.1-1
		c-0.7,0.8-1.6,1.2-2.7,1.2c-1.1,0-2-0.5-2.7-1.4s-1-2.1-1-3.5V77.6z M221.6,77.7c0,1.1,0.2,1.9,0.7,2.5s1.1,0.9,1.8,0.9
		c1,0,1.8-0.5,2.3-1.4v-4.4c-0.5-0.9-1.2-1.3-2.2-1.3c-0.8,0-1.4,0.3-1.9,0.9S221.6,76.5,221.6,77.7z"/>
	<path class="st0" d="M235.4,81.5c-0.6,0.7-1.6,1.1-2.8,1.1c-1,0-1.8-0.3-2.3-0.9s-0.8-1.5-0.8-2.6v-6.2h1.6V79
		c0,1.4,0.6,2.2,1.8,2.2c1.2,0,2.1-0.5,2.5-1.4v-6.9h1.6v9.5h-1.5L235.4,81.5z"/>
	<path class="st0" d="M242.4,81.2c0.6,0,1.1-0.2,1.5-0.5s0.7-0.8,0.7-1.3h1.5c0,0.5-0.2,1.1-0.6,1.6s-0.8,0.9-1.4,1.2
		s-1.2,0.4-1.8,0.4c-1.3,0-2.3-0.4-3.1-1.3s-1.1-2-1.1-3.5v-0.3c0-0.9,0.2-1.7,0.5-2.5s0.8-1.3,1.5-1.7s1.4-0.6,2.3-0.6
		c1.1,0,2,0.3,2.7,1s1.1,1.5,1.1,2.5h-1.5c0-0.6-0.3-1.1-0.7-1.5S243,74,242.4,74c-0.8,0-1.5,0.3-1.9,0.9s-0.7,1.5-0.7,2.6v0.3
		c0,1.1,0.2,1.9,0.7,2.5S241.6,81.2,242.4,81.2z"/>
	<path class="st0" d="M249.3,70.6v2.3h1.8v1.3h-1.8V80c0,0.4,0.1,0.7,0.2,0.9s0.4,0.3,0.8,0.3c0.2,0,0.4,0,0.8-0.1v1.3
		c-0.4,0.1-0.8,0.2-1.2,0.2c-0.7,0-1.3-0.2-1.6-0.7s-0.6-1.1-0.6-1.9v-5.9H246v-1.3h1.7v-2.3H249.3z"/>
</g>
<title>Q-Pulse7_logo</title>
</svg>
